<svg width="268" height="253" viewBox="0 0 268 253" fill="none" xmlns="http://www.w3.org/2000/svg">
<g clip-path="url(#clip0)">
<path d="M133.517 253C203.388 253 260 196.364 260 126.502C260 56.6366 203.388 0 133.517 0C63.6449 0 7 56.6366 7 126.502C7 196.364 63.6449 253 133.517 253Z" fill="#F07C11"/>
<path d="M152.722 115.141C154.987 115.141 156.823 113.301 156.823 111.031C156.823 108.761 154.987 106.921 152.722 106.921C150.456 106.921 148.619 108.761 148.619 111.031C148.619 113.301 150.456 115.141 152.722 115.141Z" fill="#1D1D1B"/>
<path d="M152.722 119.708C157.497 119.708 161.381 115.815 161.381 111.031C161.381 106.246 157.497 102.354 152.722 102.354C147.946 102.354 144.061 106.246 144.061 111.031C144.061 115.815 147.946 119.708 152.722 119.708ZM152.722 107.013C154.933 107.013 156.732 108.815 156.732 111.031C156.732 113.247 154.933 115.048 152.722 115.048C150.51 115.048 148.712 113.247 148.712 111.031C148.712 108.815 150.51 107.013 152.722 107.013Z" fill="white"/>
<path d="M111.487 188.893C114.73 189.473 117.997 189.795 121.257 189.795C139.798 189.794 158 180.548 168.938 163.52C171.881 158.937 174.181 153.944 175.774 148.679L176.933 144.847L173.958 147.453C161.523 158.344 145.176 162.636 129.64 160.082C138.029 150.452 147.996 142.299 159.145 136.08C171.452 129.215 186.11 136.775 189.267 149.87V121.841L218.809 98.9211H188.416C185.994 90.8598 178.674 85 170.016 85H79.7789C69.1465 85 60.5272 93.8365 60.5272 104.737V197.248C60.5272 198.906 60.7487 200.509 61.1247 202.048L21 223.913L48.8167 222.032L36.923 240.401L56.5761 230.067L54.4385 258.538L75.5435 216.49C76.908 216.804 78.3218 216.984 79.7789 216.984H108.472L114.904 249.487C115.226 251.11 116.617 252.277 118.231 252.277H127.284H129.619H138.671C140.547 252.277 142.067 250.718 142.067 248.797C142.067 246.875 140.547 245.316 138.671 245.316H130.059L124.453 216.984H130.674C116.312 216.984 106.765 202.354 111.487 188.893ZM152.696 102.058C157.344 102.058 161.125 105.935 161.125 110.7C161.125 115.465 157.344 119.342 152.696 119.342C148.048 119.342 144.266 115.465 144.266 110.7C144.266 105.935 148.048 102.058 152.696 102.058ZM123.132 245.316H121.006L115.4 216.984H117.524L123.132 245.316Z" fill="#1D1D1B"/>
<path d="M159.003 136.01C147.902 142.269 137.976 150.475 129.623 160.167C145.094 162.737 161.371 158.417 173.754 147.456L176.716 144.834L175.562 148.69C173.975 153.99 171.686 159.015 168.755 163.627C157.863 180.766 139.738 190.071 121.276 190.072C118.029 190.072 114.776 189.748 111.547 189.165C106.845 202.712 116.352 217.437 130.653 217.437H169.828H170.47C181.057 217.437 189.639 208.544 189.639 197.573V155.158C189.639 153.32 189.399 151.566 188.998 149.889C185.854 136.709 171.258 129.101 159.003 136.01Z" fill="white"/>
</g>
<defs>
<clipPath id="clip0">
<rect width="268" height="253" fill="white"/>
</clipPath>
</defs>
</svg>
