<svg width="39" height="39" viewBox="0 0 39 39" fill="none" xmlns="http://www.w3.org/2000/svg">
<path d="M16.5426 35.7745C16.256 35.7745 16.0241 35.5426 16.0241 35.2561V23.3302H4.09833C3.81178 23.3302 3.57983 23.0984 3.57983 22.8118V16.5896C3.57983 16.303 3.81178 16.0711 4.09833 16.0711H16.0241V4.14532C16.0241 3.85877 16.256 3.62683 16.5426 3.62683H22.7648C23.0514 3.62683 23.2832 3.85877 23.2832 4.14532V16.0711H35.2091C35.4956 16.0711 35.7276 16.303 35.7276 16.5896V22.8118C35.7276 23.0984 35.4956 23.3302 35.2091 23.3302H23.2832V35.2561C23.2832 35.5426 23.0514 35.7745 22.7648 35.7745H16.5426Z" fill="black"/>
<path d="M34.1718 22.8119H21.7276V35.2561H15.5055V22.8119H3.06116V16.5897H15.5055V4.14534H21.7276V16.5896H34.1718V22.8119Z" fill="black"/>
<path d="M19.3461 5.57215V33.2261" stroke="black" stroke-width="10" stroke-linecap="round"/>
<path d="M5.51904 19.3991L33.173 19.3991" stroke="black" stroke-width="10" stroke-linecap="round"/>
</svg>
