<?xml version="1.0" standalone="no"?>
<!DOCTYPE svg PUBLIC "-//W3C//DTD SVG 20010904//EN"
 "http://www.w3.org/TR/2001/REC-SVG-20010904/DTD/svg10.dtd">
<svg version="1.0" xmlns="http://www.w3.org/2000/svg"
 width="780.000000pt" height="780.000000pt" viewBox="0 0 780.000000 780.000000"
 preserveAspectRatio="xMidYMid meet">
<metadata>
Created by potrace 1.11, written by Peter Selinger 2001-2013
</metadata>
<g transform="translate(0.000000,780.000000) scale(0.100000,-0.100000)"
fill="#000000" stroke="none">
<path d="M2248 7205 c-2 -1 -23 -5 -48 -8 -25 -3 -65 -12 -90 -20 -47 -14
-171 -67 -180 -77 -3 -3 -23 -17 -45 -32 -50 -34 -125 -105 -125 -119 0 -6 -4
-8 -8 -5 -10 6 -60 -69 -101 -150 -57 -114 -65 -139 -79 -274 -8 -77 -7 -3672
1 -3713 3 -15 8 -35 11 -45 10 -32 21 -25 -269 -178 -66 -35 -140 -74 -165
-88 -25 -13 -99 -52 -165 -87 -66 -34 -124 -65 -130 -69 -5 -4 -59 -33 -120
-65 -60 -32 -132 -70 -160 -85 -81 -44 -140 -73 -144 -71 -2 2 -7 -1 -10 -6
-3 -4 -31 -21 -61 -37 -30 -16 -77 -41 -105 -56 -27 -15 -87 -47 -133 -70 -89
-46 -105 -59 -67 -55 47 6 250 18 297 19 27 1 48 3 48 6 0 3 30 5 68 6 59 1
131 5 317 18 113 8 262 18 285 19 33 2 30 -8 -27 -93 -27 -40 -53 -80 -58 -89
-6 -9 -73 -110 -150 -226 -77 -115 -142 -214 -144 -220 -2 -5 -13 -20 -24 -32
-11 -13 -18 -25 -16 -27 3 -3 41 13 84 35 132 67 525 270 593 306 35 18 68 33
73 33 6 0 8 -28 4 -73 -3 -39 -8 -99 -10 -132 -3 -33 -7 -87 -10 -120 -2 -33
-7 -96 -10 -140 -8 -104 -12 -164 -20 -253 -3 -40 -8 -100 -10 -135 -3 -34 -7
-98 -10 -142 l-5 -80 39 75 c21 41 53 104 71 140 18 36 40 73 48 83 8 9 12 17
8 17 -4 0 6 24 22 53 16 28 85 160 153 292 67 132 171 335 231 450 59 116 140
274 180 352 64 124 76 142 93 136 38 -12 103 -13 686 -14 l587 -1 7 -42 c4
-22 9 -45 10 -51 2 -5 13 -59 25 -120 12 -60 24 -119 26 -130 3 -11 7 -31 9
-45 8 -49 16 -85 22 -105 4 -11 7 -29 8 -40 1 -16 59 -305 99 -495 3 -14 15
-74 27 -133 23 -115 47 -159 97 -178 33 -13 871 -13 903 0 49 18 94 98 81 141
-32 104 -54 113 -281 114 l-185 1 -8 30 c-5 17 -10 39 -12 50 -2 11 -6 34 -10
50 -3 17 -8 39 -10 50 -2 11 -18 88 -35 170 -16 83 -32 161 -35 175 -2 14 -18
93 -36 175 -17 83 -33 161 -36 175 -2 14 -12 61 -20 104 -9 44 -18 86 -21 93
-4 10 6 13 38 12 24 -1 49 0 54 1 6 1 15 2 20 1 29 -5 1748 -2 1791 3 93 12
260 70 309 109 6 4 24 18 41 30 134 95 231 233 285 407 l24 75 1 919 c1 608
-2 929 -9 950 -6 20 -10 237 -11 588 l-2 557 109 83 c59 46 116 88 125 93 9 6
24 17 32 25 8 8 23 20 31 25 34 21 134 99 137 107 2 4 8 8 13 8 8 0 35 20 64
48 8 6 16 12 20 12 4 0 12 6 19 13 12 11 33 28 115 89 20 15 44 34 54 42 9 9
19 16 22 16 4 0 15 8 67 53 12 9 24 17 27 17 3 0 17 10 31 23 14 12 59 47 100
77 80 59 94 69 113 86 7 6 24 18 40 28 15 10 27 21 27 25 0 3 -264 6 -586 6
-383 0 -588 3 -593 10 -4 5 -16 30 -25 55 -43 110 -128 224 -225 300 -17 14
-38 31 -46 38 -7 6 -16 12 -19 12 -3 0 -28 13 -55 30 -41 23 -117 52 -173 66
-5 1 -9 3 -10 4 -2 1 -16 4 -33 7 -30 5 -3741 13 -3747 8z m1543 -5051 c9 -3
16 -10 16 -17 0 -11 23 -129 44 -222 16 -75 17 -82 23 -120 4 -20 8 -40 10
-44 3 -3 7 -27 11 -51 3 -25 11 -65 17 -90 9 -43 11 -53 23 -110 3 -14 10 -52
16 -84 5 -33 12 -62 14 -65 1 -3 6 -22 9 -41 3 -19 14 -78 25 -130 11 -52 17
-97 14 -100 -2 -3 -20 -6 -39 -6 -36 -1 -37 1 -48 66 -3 14 -5 25 -6 25 -2 0
-7 26 -15 70 -8 39 -10 50 -23 115 -16 75 -22 107 -32 160 -10 48 -13 63 -32
150 -6 30 -13 64 -14 75 -1 11 -5 31 -8 45 -4 14 -8 34 -10 45 -2 11 -7 31
-10 45 -3 14 -8 36 -10 50 -3 14 -10 48 -16 75 -6 28 -13 61 -15 75 -2 14 -7
40 -10 57 -6 31 -5 33 22 32 15 -1 35 -3 44 -5z"/>
</g>
</svg>
